<svg width="22" height="24" viewBox="0 0 22 24" fill="none" xmlns="http://www.w3.org/2000/svg">
<path fill-rule="evenodd" clip-rule="evenodd" d="M20.729 13.4084C21.1432 13.6284 21.4627 13.9758 21.6875 14.3232C22.1253 15.0411 22.0898 15.9211 21.6639 16.6968L20.8355 18.0863C20.3977 18.8274 19.5812 19.2905 18.7411 19.2905C18.3269 19.2905 17.8654 19.1747 17.4867 18.9432C17.1791 18.7463 16.8241 18.6768 16.4454 18.6768C15.2739 18.6768 14.2918 19.6379 14.2563 20.7842C14.2563 22.1158 13.1676 23.1579 11.8068 23.1579H10.1975C8.82484 23.1579 7.73619 22.1158 7.73619 20.7842C7.71252 19.6379 6.73037 18.6768 5.55888 18.6768C5.16839 18.6768 4.81339 18.7463 4.51756 18.9432C4.1389 19.1747 3.66557 19.2905 3.26324 19.2905C2.41125 19.2905 1.59476 18.8274 1.15693 18.0863L0.340444 16.6968C-0.0973841 15.9442 -0.12105 15.0411 0.316778 14.3232C0.506109 13.9758 0.861104 13.6284 1.26343 13.4084C1.59476 13.2463 1.80776 12.98 2.00892 12.6674C2.60058 11.6716 2.24559 10.3632 1.23977 9.77263C0.0682806 9.11263 -0.310382 7.64211 0.36411 6.49579L1.15693 5.12947C1.84326 3.98316 3.31057 3.57789 4.49389 4.24947C5.52338 4.80526 6.86053 4.43474 7.46402 3.45053C7.65336 3.12632 7.75985 2.77895 7.73619 2.43158C7.71252 1.98 7.84269 1.55158 8.06752 1.20421C8.50535 0.486316 9.29817 0.0231579 10.162 0H11.8305C12.7061 0 13.499 0.486316 13.9368 1.20421C14.1498 1.55158 14.2918 1.98 14.2563 2.43158C14.2326 2.77895 14.3391 3.12632 14.5284 3.45053C15.1319 4.43474 16.4691 4.80526 17.5104 4.24947C18.6819 3.57789 20.161 3.98316 20.8355 5.12947L21.6284 6.49579C22.3147 7.64211 21.936 9.11263 20.7527 9.77263C19.7469 10.3632 19.3919 11.6716 19.9954 12.6674C20.1847 12.98 20.3977 13.2463 20.729 13.4084ZM7.65296 11.5904C7.65296 13.4083 9.15578 14.8557 11.0136 14.8557C12.8714 14.8557 14.3387 13.4083 14.3387 11.5904C14.3387 9.77255 12.8714 8.31361 11.0136 8.31361C9.15578 8.31361 7.65296 9.77255 7.65296 11.5904Z" fill="white"/>
</svg>
