<svg width="21" height="22" viewBox="0 0 21 22" fill="none" xmlns="http://www.w3.org/2000/svg">
<g clip-path="url(#clip0)">
<path d="M20.0367 19.9951H0.954363C0.42714 19.9951 0 20.4426 0 20.9954C0 21.5473 0.42714 21.9947 0.954363 21.9947H20.0363C20.5635 21.9947 20.9906 21.5473 20.9906 20.9954C20.9902 20.4426 20.563 19.9951 20.0367 19.9951Z" fill="#CACACA"/>
<path d="M2.14772 17.3962C1.6205 17.3962 1.19336 17.8436 1.19336 18.396C1.19336 18.9483 1.6205 19.3962 2.14772 19.3962H18.8446C19.3718 19.3962 19.799 18.9483 19.799 18.396C19.799 17.8436 19.3718 17.3962 18.8446 17.3962H18.6065V8.39975H18.8446C19.1087 8.39975 19.3213 8.17601 19.3213 7.90032C19.3213 7.62462 19.1078 7.40088 18.8446 7.40088H2.14772C1.88411 7.40088 1.67099 7.62462 1.67099 7.90032C1.67099 8.17601 1.88456 8.39975 2.14772 8.39975H2.38631V17.3957H2.14772V17.3962ZM16.6977 8.39975V17.3957H13.8355V8.39975H16.6977ZM11.9268 8.39975V17.3957H9.06462V8.39975H11.9268ZM4.29414 8.39975H7.15634V17.3957H4.29414V8.39975Z" fill="#CACACA"/>
<path d="M0.954381 6.503H20.0363C20.0394 6.503 20.043 6.503 20.0457 6.503C20.5733 6.503 21 6.05552 21 5.50319C21 5.06413 20.7302 4.69201 20.3553 4.55721L10.8876 0.0941117C10.6388 -0.022907 10.3541 -0.022907 10.1048 0.0941117L0.562985 4.59185C0.152377 4.78563 -0.0732569 5.25277 0.0214645 5.71335C0.115739 6.17394 0.504454 6.503 0.954381 6.503Z" fill="#CACACA"/>
</g>
<defs>
<clipPath id="clip0">
<rect width="21" height="22" fill="white"/>
</clipPath>
</defs>
</svg>
