<svg width="698" height="500" viewBox="0 0 698 500" fill="none" xmlns="http://www.w3.org/2000/svg">
<path d="M445.93 22.8456V101.415C445.778 96.7958 444.109 92.028 440.62 87.2106C430.406 73.2052 414.225 78.271 404.163 85.8696C400.067 88.9985 396.982 92.5247 395.718 95.3555C395.718 95.3555 390.358 77.8737 360.019 78.4697C333.877 79.016 318.859 87.2106 314.46 104.543C312.791 110.95 312.64 118.598 313.853 127.588H209.386C203.773 127.588 198.615 125.651 194.621 122.373C189.463 118.201 186.126 111.844 186.126 104.742V22.8456C186.126 16.5382 188.704 10.8268 192.952 6.70469C197.149 2.58255 202.964 0 209.386 0H422.67C430.254 0 436.98 3.57583 441.227 9.08857C444.16 12.9127 445.93 17.6805 445.93 22.8456Z" fill="#237AFF"/>
<path d="M375.493 44.1521H221.319C219.954 44.1521 218.892 43.1091 218.892 41.7682C218.892 40.4272 219.954 39.3843 221.319 39.3843H375.493C376.858 39.3843 377.92 40.4769 377.92 41.7682C377.92 43.0594 376.858 44.1521 375.493 44.1521Z" fill="white"/>
<path d="M288.119 73.9502H221.373C220.008 73.9502 218.946 72.9072 218.946 71.5663C218.946 70.2253 220.008 69.1824 221.373 69.1824H288.119C289.484 69.1824 290.546 70.2253 290.546 71.5663C290.546 72.9072 289.434 73.9502 288.119 73.9502Z" fill="white"/>
<path d="M697.999 195.976V351.773H517.026C519.2 325.302 520.414 297.688 520.262 272.111C520.06 237.197 499.834 225.824 473.035 222.199V195.926H697.999V195.976Z" fill="#D4F9BB"/>
<path d="M677.423 293.269C678.95 292.592 679.629 290.827 678.939 289.327C678.249 287.827 676.452 287.16 674.925 287.837C673.398 288.515 672.719 290.28 673.409 291.78C674.098 293.28 675.895 293.947 677.423 293.269Z" fill="white"/>
<path d="M677.423 312.342C678.95 311.664 679.629 309.899 678.939 308.4C678.249 306.9 676.452 306.233 674.925 306.91C673.398 307.588 672.719 309.353 673.409 310.853C674.098 312.352 675.895 313.019 677.423 312.342Z" fill="white"/>
<path d="M554.092 245.492C551.665 249.068 549.187 252.643 546.76 256.219C544.99 258.752 549.237 261.186 550.957 258.603C553.384 255.027 555.862 251.452 558.289 247.925C560.008 245.343 555.811 242.959 554.092 245.492Z" fill="white"/>
<path d="M662.401 253.983H578.21C576.845 253.983 575.783 252.94 575.783 251.599C575.783 250.259 576.845 249.216 578.21 249.216H662.401C663.766 249.216 664.828 250.308 664.828 251.599C664.828 252.94 663.766 253.983 662.401 253.983Z" fill="white"/>
<path d="M649.256 292.126H578.263C576.898 292.126 575.836 291.033 575.836 289.742C575.836 288.451 576.898 287.358 578.263 287.358H649.256C650.621 287.358 651.683 288.401 651.683 289.742C651.683 291.083 650.621 292.126 649.256 292.126Z" fill="white"/>
<path d="M632.113 195.976H626.753C639.142 223.143 666.245 242.512 698 244.3V239.532C668.976 237.794 644.148 220.461 632.113 195.976Z" fill="white"/>
<path d="M213.566 109.709H63.0336V193.195H213.566V109.709Z" fill="#08289A"/>
<path d="M63.0334 193.194V234.117L108.39 189.618L63.0334 193.194Z" fill="#08289A"/>
<path d="M144.394 150.235H99.4927C98.1274 150.235 97.0656 149.192 97.0656 147.851C97.0656 146.51 98.1274 145.468 99.4927 145.468H144.394C145.76 145.468 146.822 146.56 146.822 147.851C146.822 149.192 145.709 150.235 144.394 150.235Z" fill="white"/>
<path d="M175.944 150.235H160.168C158.802 150.235 157.74 149.192 157.74 147.851C157.74 146.51 158.802 145.468 160.168 145.468H175.944C177.31 145.468 178.372 146.56 178.372 147.851C178.372 149.192 177.31 150.235 175.944 150.235Z" fill="white"/>
<path d="M371.497 220.106C343.787 219.163 309.453 220.355 290.036 238.184C280.884 246.627 275.979 258 275.524 272.105C274.766 295.596 275.473 330.609 276.434 360.656C278.153 362.544 279.873 364.48 281.491 366.467C280.429 335.278 279.569 297.235 280.429 272.254C280.833 259.49 285.233 249.21 293.424 241.661C311.526 225.023 344.596 223.98 371.395 224.874C371.446 224.874 371.446 224.874 371.497 224.874C372.811 224.874 373.873 223.881 373.924 222.59C373.873 221.249 372.811 220.156 371.497 220.106Z" fill="#201000"/>
<path d="M408.148 87.3534C404.052 90.4823 400.968 94.0084 399.704 96.8393C399.704 96.8393 394.344 79.3575 364.005 79.9534C337.863 80.4997 322.845 88.6944 318.446 106.027C294.528 96.3923 290.888 66.693 314.653 64.0608C338.368 61.4286 391.816 63.3159 408.148 87.3534Z" fill="#201000"/>
<path d="M418.974 158.771C418.519 159.119 418.064 159.466 417.609 159.764C420.845 148.937 419.884 136.323 419.884 136.323C423.778 134.833 427.52 132.995 430.908 130.86C432.425 140.842 429.643 150.378 418.974 158.771Z" fill="#201000"/>
<path d="M451.282 110.845C449.411 117.003 445.164 122.913 439.146 127.979C434.494 131.853 428.882 135.23 422.409 137.912C422.612 143.474 422.662 160.658 415.077 170.392C415.633 175.011 418.01 195.175 420.741 222.49C420.892 223.782 419.881 224.974 418.566 225.123C417.201 225.272 416.038 224.278 415.886 222.987C412.751 191.996 410.122 170.243 410.071 169.995C409.97 169.349 410.172 168.654 410.628 168.158C419.021 158.423 417.403 136.77 417.403 136.521C417.302 135.478 417.959 134.485 418.92 134.137C426.556 131.207 433.18 127.085 438.084 122.417C442.281 118.444 445.214 114.023 446.579 109.554C448.552 103.048 447.186 96.4919 442.585 90.1845C439.399 85.814 435.354 83.2315 430.601 82.5362C425.089 81.7416 418.465 83.5295 412.296 87.4529C411.386 88.0489 410.476 88.6946 409.566 89.3402C405.925 92.1214 402.992 95.3992 401.88 97.8825C401.475 98.7764 400.514 99.3724 399.503 99.3227C398.492 99.2731 397.632 98.5778 397.329 97.6341C397.127 96.9885 391.969 81.8409 363.956 82.4865C338.521 83.0328 324.768 90.7308 320.672 106.723C319.155 112.633 318.953 119.933 320.065 128.426C320.571 132.201 321.026 136.025 321.532 139.849C324.211 161.354 326.993 183.553 334.527 191.748C343.123 201.135 352.73 201.035 365.422 197.807C366.08 197.658 366.737 197.757 367.293 198.055C367.849 198.403 368.254 198.949 368.406 199.545L377.507 238.284C377.811 239.575 377.002 240.866 375.687 241.164C375.485 241.214 375.333 241.214 375.131 241.214C374.018 241.214 373.007 240.469 372.754 239.376L364.209 202.972C351.213 205.902 340.493 205.406 330.886 194.877C322.341 185.54 319.61 163.588 316.677 140.345C316.222 136.571 315.716 132.747 315.211 128.972C313.997 119.735 314.25 112.037 315.919 105.481C320.571 87.304 336.195 78.2154 363.804 77.6194C386.558 77.1724 396.065 86.3604 399.807 91.9724C401.475 89.8369 403.7 87.6516 406.329 85.6154C406.38 85.5657 406.481 85.516 406.532 85.4664C410.324 82.5858 420.235 76.1295 431.208 77.7187C437.326 78.6127 442.433 81.8409 446.428 87.304C452.04 94.8033 453.659 102.948 451.282 110.845Z" fill="#201000"/>
<path d="M343.825 157.38C343.269 157.38 342.713 157.182 342.258 156.834C330.527 147.05 332.347 132.499 339.477 110.696C339.881 109.454 341.247 108.759 342.511 109.156C343.775 109.554 344.483 110.895 344.078 112.136C336.494 135.329 336.848 146.057 345.393 153.159C346.404 154.003 346.556 155.493 345.646 156.536C345.241 157.082 344.533 157.38 343.825 157.38Z" fill="#201000"/>
<path d="M374.775 122.916C376.302 122.238 376.981 120.473 376.291 118.973C375.602 117.473 373.804 116.807 372.277 117.484C370.75 118.161 370.071 119.926 370.761 121.426C371.451 122.926 373.248 123.593 374.775 122.916Z" fill="#201000"/>
<path d="M327.951 127.929C329.478 127.252 330.157 125.487 329.467 123.987C328.778 122.487 326.981 121.82 325.454 122.498C323.927 123.175 323.248 124.94 323.937 126.44C324.627 127.94 326.424 128.607 327.951 127.929Z" fill="#201000"/>
<path d="M375.384 164.234C381.553 163.241 385.143 157.231 382.817 151.47C381.654 148.64 386.104 146.653 387.267 149.484C390.756 158.125 385.598 167.413 376.193 168.952C373.058 169.449 372.3 164.731 375.384 164.234Z" fill="#201000"/>
<path d="M365.98 106.076C366.131 104.735 367.345 103.891 368.66 103.941C370.025 103.99 371.39 104.04 372.705 104.04C374.019 104.09 374.98 105.431 374.879 106.672C374.727 108.013 373.514 108.858 372.199 108.808C370.834 108.758 369.469 108.709 368.154 108.709C366.839 108.659 365.828 107.268 365.98 106.076Z" fill="#201000"/>
<path d="M323.653 106.971L326.434 105.729C329.265 104.488 331.288 108.809 328.456 110.1L325.675 111.342C322.793 112.583 320.771 108.213 323.653 106.971Z" fill="#201000"/>
<path d="M413.002 119.486C412.952 119.486 412.952 119.486 412.901 119.486C411.586 119.437 410.525 118.344 410.575 117.003C410.828 110.696 417.806 97.1375 427.919 94.8033C429.233 94.5053 430.548 95.2999 430.851 96.5912C431.155 97.8825 430.346 99.1737 429.031 99.4717C421.194 101.26 415.632 112.931 415.429 117.202C415.379 118.493 414.317 119.486 413.002 119.486Z" fill="#201000"/>
<path d="M396.26 83.48C390.597 79.2585 383.72 77.3713 376.692 77.6693C376.489 77.6693 376.287 77.7686 376.135 77.8183C375.883 77.272 375.579 76.7257 375.326 76.1794C374.062 73.3485 369.916 75.8317 371.129 78.6129C374.416 85.9632 379.726 92.1713 386.754 96.2934C391.052 98.8263 398.536 101.856 401.772 96.1941C404.553 91.327 399.952 86.2115 396.26 83.48Z" fill="#201000"/>
<path d="M264.951 373.123L255.597 371.683C254.434 371.136 253.321 370.441 252.31 369.547C246.495 364.73 211.504 346.304 211.554 352.462C211.605 362.544 247.304 375.358 241.489 387.426L219.594 378.139C215.195 377.742 210.846 376.748 207.155 374.513L186.423 327.481C184.906 324.055 187.485 320.181 191.277 320.181H241.438C243.562 320.181 245.484 321.422 246.343 323.31L254.282 341.437C251.653 341.338 249.377 342.033 247.961 343.722C244.573 347.794 255.091 349.681 260.856 356.386L264.243 364.084C264.496 366.815 264.901 372.875 264.951 373.123Z" fill="#201000"/>
<path d="M456.537 499.966C429.181 499.966 387.01 487.103 318.494 460.78C228.892 426.313 221.965 421.049 213.622 409.527C212.863 408.434 213.116 406.944 214.178 406.199C215.29 405.454 216.807 405.703 217.566 406.746C225.1 417.175 232.23 422.489 320.264 456.36C453.048 507.415 480.96 504.336 497.444 469.174C505.99 450.848 514.08 406.398 518.58 353.108C520.856 325.644 521.968 298.179 521.817 273.645C521.614 244.592 508.114 230.338 476.713 226.116C463.818 224.378 449.003 224.428 434.642 224.527C429.737 224.577 424.833 224.577 419.978 224.527C418.613 224.527 417.551 223.435 417.551 222.143C417.551 220.802 418.562 219.809 419.978 219.759C424.833 219.809 429.687 219.759 434.592 219.759C449.104 219.71 464.122 219.61 477.37 221.398C498.405 224.229 526.418 232.771 526.671 273.645C526.823 298.279 525.71 325.892 523.435 353.505C518.934 407.292 510.642 452.387 501.894 471.16C492.944 490.182 480.353 499.966 456.537 499.966Z" fill="#201000"/>
<path d="M241.087 415.437C240.834 415.437 240.581 415.387 240.379 415.337C237.446 414.443 234.665 413.599 232.036 412.854C214.844 407.838 203.467 404.51 203.467 388.221C203.467 386.88 204.529 385.837 205.894 385.837C207.259 385.837 208.321 386.88 208.321 388.221C208.321 400.935 216.159 403.219 233.401 408.285C236.03 409.03 238.811 409.874 241.795 410.818C243.059 411.215 243.767 412.556 243.362 413.798C243.059 414.791 242.098 415.437 241.087 415.437Z" fill="#201000"/>
<path d="M235.98 404.262C235.626 404.262 235.272 404.213 234.968 404.064C232.389 402.921 229.962 401.829 227.586 400.835C210.545 393.435 197.044 387.575 203.618 371.434C204.123 370.193 205.539 369.597 206.753 370.093C208.017 370.59 208.624 371.98 208.118 373.172C203.466 384.595 210.849 388.32 229.558 396.415C231.934 397.458 234.412 398.501 236.991 399.693C238.204 400.239 238.761 401.68 238.204 402.872C237.8 403.766 236.89 404.262 235.98 404.262Z" fill="#201000"/>
<path d="M451.94 429.542C451.687 429.542 451.434 429.492 451.232 429.442C445.265 427.605 305.351 384.049 291.901 377.344C281.889 372.328 276.833 364.233 272.737 357.677C271.119 355.095 269.602 352.611 267.984 350.824C264.495 346.85 258.275 343.771 253.775 343.771C253.724 343.771 253.674 343.771 253.674 343.771C251.904 343.771 250.64 344.268 249.881 345.211C250.438 345.907 252.359 347.049 253.775 347.893C258.478 350.724 264.95 354.648 266.568 362.246C268.186 369.696 265.86 372.825 263.635 374.166C259.843 376.401 254.432 374.364 250.792 371.335C243.713 365.475 217.115 352.313 213.171 354.201C212.514 354.846 212.059 355.542 212.109 355.939C212.312 357.479 217.014 360.061 221.16 362.395C227.734 366.021 235.925 370.54 242.55 377.891C244.168 379.579 247.758 383.95 245.685 387.029C243.915 389.711 239.617 389.562 231.021 386.483C224.093 384.049 219.29 382.807 215.801 381.913C209.025 380.175 206.244 379.48 203.665 373.173C203.159 371.931 203.766 370.54 205.03 370.093C206.244 369.597 207.71 370.193 208.165 371.434C209.834 375.507 210.491 375.656 217.014 377.295C220.604 378.189 225.509 379.43 232.639 381.963C237.645 383.751 240.072 384.099 241.184 384.099C240.729 383.254 239.87 382.013 238.959 381.069C232.892 374.265 225.054 369.994 218.834 366.518C212.463 362.991 207.862 360.458 207.356 356.535C207.103 354.548 207.963 352.611 209.935 350.675C216.862 344.069 250.943 365.177 253.977 367.66C256.91 370.093 259.944 370.789 261.208 370.044C262.371 369.348 262.624 366.716 261.916 363.24C260.702 357.628 255.494 354.449 251.297 351.966C248.061 350.029 245.482 348.44 245.078 345.907C244.926 345.013 244.977 343.622 246.241 342.182C247.96 340.146 250.539 339.053 253.724 339.003C253.775 339.003 253.826 339.003 253.927 339.003C259.893 339.003 267.377 342.629 271.827 347.695C273.647 349.781 275.316 352.413 277.035 355.194C280.979 361.501 285.429 368.653 294.227 373.073C307.323 379.629 451.384 424.426 452.799 424.873C454.064 425.27 454.771 426.611 454.367 427.853C453.912 428.896 452.951 429.542 451.94 429.542Z" fill="#201000"/>
<path d="M438.994 424.773C438.893 424.773 438.741 424.773 438.64 424.724C437.326 424.525 436.415 423.333 436.567 421.992L452.951 312.88C453.153 311.588 454.366 310.694 455.681 310.893C456.996 311.092 457.906 312.284 457.754 313.625L441.371 422.737C441.219 423.929 440.157 424.773 438.994 424.773Z" fill="#201000"/>
<path d="M321.678 384.409C321.565 384.431 321.395 384.465 321.273 384.443C319.767 384.557 318.534 383.687 318.463 382.445L317.201 280.51C317.195 279.302 318.393 278.226 319.9 278.112C321.406 277.997 322.639 278.868 322.71 280.109L323.972 382.044C324.016 383.152 322.98 384.149 321.678 384.409Z" fill="#201000"/>
<path d="M397.39 249.57C369.153 249.57 348.831 228.572 348.495 228.252C347.154 226.815 347.02 224.42 348.227 222.823C349.434 221.226 351.446 221.066 352.788 222.504C354.465 224.26 394.841 265.778 440.449 222.344C441.858 220.987 443.87 221.306 444.943 222.983C446.083 224.659 445.815 227.055 444.406 228.412C427.773 244.3 411.609 249.57 397.39 249.57Z" fill="#201000"/>
<path d="M33.272 150.219C40.4211 150.219 46.2166 144.526 46.2166 137.505C46.2166 130.483 40.4211 124.791 33.272 124.791C26.1228 124.791 20.3273 130.483 20.3273 137.505C20.3273 144.526 26.1228 150.219 33.272 150.219Z" fill="#D4F9BB"/>
<path d="M144.014 273.982L135.569 267.923C133.041 266.086 130.614 270.258 133.142 272.046C135.974 274.082 138.755 276.068 141.587 278.105C144.064 279.942 146.491 275.82 144.014 273.982Z" fill="#D4F9BB"/>
<path d="M584.734 36.1403C580.941 41.4544 577.199 46.7189 573.407 52.0329C571.587 54.5658 575.834 56.9497 577.604 54.4169C581.396 49.1028 585.138 43.8383 588.93 38.5243C590.751 36.041 586.554 33.6571 584.734 36.1403Z" fill="#237AFF"/>
<path d="M591.812 65.8887C590.953 65.0444 589.183 64.8954 588.374 65.8887C586.199 68.5209 584.076 71.2028 581.901 73.835C581.092 74.8283 580.89 76.2189 581.901 77.2122C582.761 78.0565 584.531 78.2054 585.34 77.2122C587.514 74.58 589.638 71.8981 591.812 69.2659C592.621 68.2229 592.773 66.882 591.812 65.8887Z" fill="#237AFF"/>
<path d="M11.0748 163.33C8.90048 160.152 6.77673 156.973 4.60243 153.795C2.88321 151.262 -1.31369 153.646 0.405523 156.179C2.57983 159.357 4.70356 162.536 6.87786 165.714C8.64764 168.297 12.8446 165.913 11.0748 163.33Z" fill="#237AFF"/>
<path d="M659.321 362.832C655.023 360.697 650.675 358.611 646.377 356.475C643.596 355.085 641.118 359.207 643.95 360.598C648.248 362.733 652.596 364.819 656.894 366.955C659.625 368.295 662.103 364.173 659.321 362.832Z" fill="#237AFF"/>
</svg>
