<svg width="21" height="19" viewBox="0 0 21 19" fill="none" xmlns="http://www.w3.org/2000/svg">
<path d="M15.9189 11.819C15.6599 12.07 15.5409 12.433 15.5999 12.789L16.4889 17.709C16.5639 18.126 16.3879 18.548 16.0389 18.789C15.6969 19.039 15.2419 19.069 14.8689 18.869L10.4399 16.559C10.2859 16.477 10.1149 16.433 9.93988 16.428H9.66888C9.57488 16.442 9.48288 16.472 9.39888 16.518L4.96888 18.839C4.74988 18.949 4.50188 18.988 4.25888 18.949C3.66688 18.837 3.27188 18.273 3.36888 17.678L4.25888 12.758C4.31788 12.399 4.19888 12.034 3.93988 11.779L0.328876 8.27902C0.0268758 7.98602 -0.0781242 7.54602 0.0598758 7.14902C0.193876 6.75302 0.535876 6.46402 0.948876 6.39902L5.91888 5.67802C6.29688 5.63902 6.62888 5.40902 6.79888 5.06902L8.98888 0.579023C9.04088 0.479023 9.10788 0.387023 9.18888 0.309023L9.27888 0.239023C9.32588 0.187023 9.37988 0.144023 9.43988 0.109023L9.54888 0.0690234L9.71888 -0.000976562H10.1399C10.5159 0.0380234 10.8469 0.263023 11.0199 0.599023L13.2389 5.06902C13.3989 5.39602 13.7099 5.62302 14.0689 5.67802L19.0389 6.39902C19.4589 6.45902 19.8099 6.74902 19.9489 7.14902C20.0799 7.55002 19.9669 7.99002 19.6589 8.27902L15.9189 11.819Z" fill="white"/>
</svg>
