<svg width="20" height="20" viewBox="0 0 20 20" fill="none" xmlns="http://www.w3.org/2000/svg">
<path d="M10.9138 0.000824899C10.6975 -0.00881318 10.4863 0.0663223 10.3266 0.209663C10.1669 0.353003 10.0719 0.552776 10.0625 0.764928V0.889316L10.5787 8.43261C10.5777 8.68278 10.6842 8.92179 10.8721 9.09092C11.06 9.26005 11.3118 9.34362 11.5658 9.3211L19.2453 8.81466C19.4592 8.80099 19.6588 8.70425 19.7999 8.54585C19.9409 8.38745 20.0118 8.18043 19.9969 7.97059C20.0013 7.94411 20.0013 7.91711 19.9969 7.89063C19.3046 3.4558 15.4846 0.137655 10.9138 0.000824899Z" fill="white"/>
<path d="M16.4558 10.8671L9.79965 11.2936C9.36136 11.3166 8.95695 11.0628 8.79444 10.6628C8.7254 10.4595 8.69173 10.2462 8.69482 10.0319C8.55898 7.97065 8.41408 5.90935 8.27824 3.81251C8.2473 3.72169 8.20469 3.63511 8.15146 3.55485C7.93762 3.11254 7.4462 2.86782 6.95607 2.95956C2.90728 3.81912 0.0136824 7.32712 0.00106199 11.3913C-0.0051696 11.7212 0.0160313 12.0511 0.064454 12.3776C0.189303 13.4794 0.537217 14.5458 1.08778 15.5139C2.96017 18.8755 6.86938 20.621 10.6828 19.7983C14.4962 18.9756 17.2984 15.7821 17.5606 11.96C17.5655 11.6796 17.4566 11.4087 17.2579 11.2071C17.0591 11.0055 16.7869 10.8896 16.5011 10.8849L16.4558 10.8671Z" fill="white"/>
</svg>
