<svg width="20" height="23" viewBox="0 0 20 23" fill="none" xmlns="http://www.w3.org/2000/svg">
<path fill-rule="evenodd" clip-rule="evenodd" d="M5.34444 0.388672H14.6567C18.0889 0.388672 20 2.36645 20 5.75534V17.2331C20 20.6776 18.0889 22.6109 14.6567 22.6109H5.34444C1.96667 22.6109 0 20.6776 0 17.2331V5.75534C0 2.36645 1.96667 0.388672 5.34444 0.388672ZM5.64531 5.56634V5.55523H8.96642C9.44531 5.55523 9.8342 5.94412 9.8342 6.42079C9.8342 6.91079 9.44531 7.29967 8.96642 7.29967H5.64531C5.16642 7.29967 4.77865 6.91079 4.77865 6.43301C4.77865 5.95523 5.16642 5.56634 5.64531 5.56634ZM5.64531 12.322H14.3564C14.8342 12.322 15.2231 11.9331 15.2231 11.4553C15.2231 10.9775 14.8342 10.5875 14.3564 10.5875H5.64531C5.16642 10.5875 4.77865 10.9775 4.77865 11.4553C4.77865 11.9331 5.16642 12.322 5.64531 12.322ZM5.64549 17.3996H14.3566C14.7999 17.3552 15.1344 16.9763 15.1344 16.5329C15.1344 16.0774 14.7999 15.6996 14.3566 15.6552H5.64549C5.31215 15.6218 4.98993 15.7774 4.81215 16.0663C4.63438 16.3441 4.63438 16.7107 4.81215 16.9996C4.98993 17.2774 5.31215 17.4441 5.64549 17.3996Z" fill="white"/>
</svg>
