<svg width="2000" height="1200" viewBox="0 0 2000 1200" fill="none" xmlns="http://www.w3.org/2000/svg">
<path d="M2000 0H0V1200H2000V0Z" fill="#08289A"/>
<path d="M652.435 536.098C652.407 534.271 652.746 532.457 653.433 530.763C654.12 529.07 655.14 527.531 656.433 526.24C657.726 524.948 659.266 523.93 660.96 523.244C662.654 522.559 664.469 522.222 666.296 522.252H757.446C760.689 522.363 763.762 523.73 766.017 526.064C768.272 528.398 769.532 531.516 769.532 534.761C769.532 538.006 768.272 541.125 766.017 543.458C763.762 545.792 760.689 547.159 757.446 547.27H679.921V589.949H747.382C749.061 589.891 750.734 590.172 752.302 590.775C753.87 591.377 755.301 592.289 756.509 593.457C757.717 594.624 758.678 596.022 759.334 597.569C759.99 599.115 760.329 600.778 760.329 602.458C760.329 604.138 759.99 605.801 759.334 607.347C758.678 608.894 757.717 610.292 756.509 611.46C755.301 612.627 753.87 613.539 752.302 614.142C750.734 614.744 749.061 615.025 747.382 614.967H679.921V666.128C679.921 669.773 678.473 673.269 675.896 675.846C673.319 678.424 669.823 679.871 666.178 679.871C662.533 679.871 659.037 678.424 656.46 675.846C653.883 673.269 652.435 669.773 652.435 666.128V536.098Z" fill="white"/>
<path d="M851.078 681.32C816.897 681.32 790.489 656.508 790.489 620.095V619.652C790.489 585.929 814.384 558.221 848.122 558.221C885.658 558.221 904.189 589.047 904.189 616.312C904.233 618.006 903.935 619.69 903.314 621.266C902.693 622.842 901.761 624.276 900.574 625.484C899.386 626.692 897.968 627.649 896.403 628.297C894.838 628.945 893.159 629.272 891.465 629.258H817.576C820.532 648.469 834.113 659.197 851.565 659.197C861.816 659.241 871.734 655.566 879.481 648.853C881.396 647.184 883.872 646.302 886.411 646.385C887.841 646.375 889.259 646.652 890.579 647.202C891.899 647.752 893.095 648.562 894.095 649.584C895.095 650.606 895.879 651.819 896.4 653.151C896.92 654.483 897.167 655.906 897.125 657.335C897.073 660.458 895.787 663.433 893.549 665.611C882.791 675.291 869.387 681.32 851.078 681.32ZM877.885 611.391C876.096 593.968 865.811 580.358 847.945 580.358C831.423 580.358 819.793 593.096 817.34 611.391H877.885Z" fill="white"/>
<path d="M956.99 668.581L925.262 578.777C924.458 576.551 924.009 574.212 923.932 571.846C923.948 570.151 924.306 568.476 924.982 566.922C925.659 565.368 926.642 563.966 927.872 562.8C929.102 561.633 930.554 560.726 932.142 560.132C933.729 559.539 935.42 559.271 937.114 559.344C943.808 559.344 948.271 563.777 950.296 570.058L973.068 641.553L996.077 570.058C998.087 563.807 1003.01 559.344 1009.92 559.344H1011.49C1018.42 559.344 1023.31 563.777 1025.35 570.058L1048.57 641.553L1071.59 569.836C1073.38 564.029 1077.62 559.344 1084.77 559.344C1086.43 559.319 1088.08 559.623 1089.62 560.239C1091.16 560.856 1092.56 561.772 1093.75 562.935C1094.93 564.098 1095.87 565.485 1096.52 567.015C1097.16 568.544 1097.49 570.186 1097.5 571.846C1097.4 573.897 1097.03 575.925 1096.39 577.875L1064.22 668.581C1061.26 676.842 1055.72 680.64 1049.25 680.64H1048.36C1041.65 680.64 1036.08 676.842 1033.58 669.025L1010.59 598.875L987.344 669.025C984.891 676.842 979.319 680.64 972.832 680.64H971.93C965.251 680.64 959.665 676.842 956.99 668.581Z" fill="white"/>
<path d="M1117.2 620.332V619.889C1117.2 586.373 1143.12 558.221 1178.64 558.221C1197.17 558.221 1209.91 564.25 1220.02 572.999C1221.34 574.183 1222.4 575.629 1223.13 577.244C1223.87 578.859 1224.25 580.609 1224.28 582.383C1224.27 584.014 1223.94 585.629 1223.31 587.133C1222.68 588.636 1221.75 589.999 1220.59 591.142C1219.42 592.285 1218.04 593.184 1216.53 593.789C1215.01 594.393 1213.39 594.69 1211.76 594.663C1208.87 594.634 1206.05 593.699 1203.72 591.988C1196.79 586.18 1189.19 581.924 1178.48 581.924C1158.82 581.924 1144.3 598.904 1144.3 619.46V619.918C1144.3 640.903 1158.82 657.661 1179.59 657.661C1190.32 657.661 1198.58 653.419 1205.95 647.168C1207.61 645.679 1209.68 644.711 1211.89 644.384C1214.1 644.057 1216.35 644.387 1218.37 645.331C1220.4 646.276 1222.1 647.794 1223.26 649.697C1224.43 651.6 1225.02 653.804 1224.94 656.035C1225 657.647 1224.69 659.251 1224.03 660.724C1223.37 662.197 1222.38 663.5 1221.14 664.532C1210.65 674.581 1197.91 681.29 1178.29 681.29C1143.12 681.32 1117.2 653.833 1117.2 620.332Z" fill="white"/>
<path d="M1306.44 681.32C1272.26 681.32 1245.85 656.508 1245.85 620.095V619.652C1245.85 585.929 1269.76 558.221 1303.48 558.221C1341.01 558.221 1359.55 589.047 1359.55 616.312C1359.59 618.006 1359.29 619.691 1358.67 621.267C1358.05 622.843 1357.11 624.277 1355.93 625.485C1354.74 626.693 1353.32 627.649 1351.75 628.297C1350.19 628.946 1348.51 629.272 1346.81 629.258H1272.92C1275.88 648.469 1289.45 659.197 1306.91 659.197C1317.17 659.238 1327.09 655.563 1334.84 648.853C1336.75 647.181 1339.22 646.299 1341.76 646.385C1343.19 646.375 1344.61 646.652 1345.93 647.202C1347.25 647.751 1348.45 648.561 1349.45 649.583C1350.45 650.605 1351.23 651.818 1351.76 653.15C1352.28 654.482 1352.53 655.905 1352.49 657.335C1352.44 660.458 1351.15 663.433 1348.91 665.611C1338.15 675.291 1324.76 681.32 1306.44 681.32ZM1333.25 611.391C1331.46 593.968 1321.19 580.358 1303.31 580.358C1286.79 580.358 1275.23 593.096 1272.7 611.391H1333.25Z" fill="white"/>
<path d="M1391.86 572.969C1391.81 571.187 1392.13 569.414 1392.78 567.755C1393.44 566.097 1394.42 564.588 1395.67 563.317C1396.92 562.045 1398.41 561.039 1400.06 560.356C1401.71 559.674 1403.48 559.33 1405.26 559.344C1407.05 559.332 1408.83 559.677 1410.49 560.357C1412.15 561.038 1413.65 562.041 1414.92 563.308C1416.19 564.576 1417.19 566.083 1417.87 567.741C1418.55 569.4 1418.9 571.177 1418.88 572.969V578.777C1426.48 567.826 1437.43 558.221 1455.83 558.221C1482.43 558.221 1497.83 576.087 1497.83 603.337V666.35C1497.86 668.12 1497.53 669.877 1496.87 671.518C1496.2 673.159 1495.22 674.649 1493.96 675.9C1492.71 677.151 1491.22 678.136 1489.58 678.799C1487.94 679.461 1486.18 679.785 1484.41 679.753C1482.63 679.797 1480.85 679.482 1479.2 678.827C1477.54 678.171 1476.03 677.189 1474.76 675.939C1473.49 674.688 1472.48 673.195 1471.8 671.548C1471.11 669.901 1470.77 668.133 1470.78 666.35V611.672C1470.78 593.348 1461.64 582.855 1445.54 582.855C1429.91 582.855 1418.94 593.791 1418.94 612.115V666.409C1418.83 669.916 1417.35 673.24 1414.83 675.68C1412.31 678.12 1408.94 679.484 1405.43 679.484C1401.92 679.484 1398.55 678.12 1396.03 675.68C1393.51 673.24 1392.03 669.916 1391.91 666.409L1391.86 572.969Z" fill="white"/>
<path d="M1540.39 646.015V583.949H1535.95C1532.94 583.841 1530.09 582.57 1528 580.402C1525.91 578.234 1524.74 575.339 1524.74 572.326C1524.74 569.313 1525.91 566.418 1528 564.25C1530.09 562.082 1532.94 560.811 1535.95 560.703H1540.39V540.605C1540.39 537.019 1541.81 533.58 1544.35 531.044C1546.88 528.508 1550.32 527.084 1553.91 527.084C1557.49 527.084 1560.93 528.508 1563.47 531.044C1566.01 533.58 1567.43 537.019 1567.43 540.605V560.703H1588.64C1590.2 560.648 1591.75 560.907 1593.21 561.466C1594.67 562.025 1596 562.872 1597.13 563.957C1598.25 565.042 1599.14 566.342 1599.76 567.78C1600.37 569.218 1600.68 570.764 1600.68 572.326C1600.68 573.888 1600.37 575.434 1599.76 576.872C1599.14 578.31 1598.25 579.61 1597.13 580.695C1596 581.78 1594.67 582.627 1593.21 583.186C1591.75 583.745 1590.2 584.004 1588.64 583.949H1567.43V641.804C1567.43 652.296 1572.78 656.581 1581.94 656.581C1584.18 656.478 1586.42 656.256 1588.64 655.916C1591.62 655.916 1594.48 657.086 1596.62 659.175C1598.75 661.264 1599.97 664.105 1600.03 667.088C1599.98 669.342 1599.28 671.534 1598.02 673.399C1596.75 675.264 1594.97 676.722 1592.89 677.595C1586.94 679.709 1580.66 680.764 1574.35 680.714C1554.41 680.64 1540.39 671.921 1540.39 646.015Z" fill="white"/>
<path d="M1626.65 666.793C1625.01 665.847 1623.67 664.472 1622.77 662.818C1621.86 661.164 1621.42 659.294 1621.5 657.409C1621.49 655.968 1621.76 654.539 1622.3 653.204C1622.85 651.869 1623.65 650.656 1624.67 649.637C1625.69 648.617 1626.9 647.81 1628.23 647.265C1629.57 646.719 1631 646.445 1632.44 646.459C1634.48 646.472 1636.48 647.011 1638.25 648.026C1649.64 655.621 1661.49 659.419 1672.23 659.419C1683.85 659.419 1690.54 654.498 1690.54 646.696V646.311C1690.54 637.164 1678.04 634.031 1664.18 629.775C1646.76 624.869 1627.32 617.716 1627.32 595.151V594.589C1627.32 572.245 1645.87 558.62 1669.32 558.62C1682.27 558.816 1694.99 562.11 1706.4 568.226C1708.35 569.164 1709.99 570.632 1711.14 572.463C1712.28 574.293 1712.89 576.41 1712.89 578.57C1712.9 580.03 1712.62 581.477 1712.05 582.825C1711.49 584.172 1710.67 585.394 1709.63 586.415C1708.58 587.437 1707.35 588.239 1705.99 588.772C1704.63 589.306 1703.18 589.56 1701.72 589.52C1699.84 589.55 1697.99 589.086 1696.35 588.176C1686.75 583.255 1676.92 580.122 1668.66 580.122C1658.15 580.122 1652.12 585.043 1652.12 591.752V592.195C1652.12 600.899 1664.86 604.475 1678.72 608.953C1695.92 614.303 1715.36 622.135 1715.36 643.341V643.799C1715.36 668.596 1696.14 680.877 1671.57 680.877C1655.53 680.76 1639.88 675.856 1626.65 666.793V666.793Z" fill="white"/>
<path d="M459.722 401H442.778C437.255 401 432.778 405.477 432.778 411V442.722C432.778 448.245 437.255 452.722 442.778 452.722H459.722C465.245 452.722 469.722 448.245 469.722 442.722V411C469.722 405.477 465.245 401 459.722 401Z" fill="white"/>
<path d="M1182.36 658.133H1174.28C1168.75 658.133 1164.28 662.61 1164.28 668.133V689.511C1164.28 695.034 1168.75 699.511 1174.28 699.511H1182.36C1187.88 699.511 1192.36 695.034 1192.36 689.511V668.133C1192.36 662.61 1187.88 658.133 1182.36 658.133Z" fill="white"/>
<path d="M1182.36 538.433H1174.28C1168.75 538.433 1164.28 542.91 1164.28 548.433V569.811C1164.28 575.334 1168.75 579.811 1174.28 579.811H1182.36C1187.88 579.811 1192.36 575.334 1192.36 569.811V548.433C1192.36 542.911 1187.88 538.433 1182.36 538.433Z" fill="white"/>
<path d="M459.722 748.278H442.778C437.255 748.278 432.778 752.755 432.778 758.278V790C432.778 795.523 437.255 800 442.778 800H459.722C465.245 800 469.722 795.523 469.722 790V758.278C469.722 752.755 465.245 748.278 459.722 748.278Z" fill="white"/>
<path d="M394.722 662.432C393.014 664.135 390.949 665.438 388.676 666.247C386.403 667.056 383.979 667.35 381.579 667.109C379.179 666.868 376.862 666.097 374.795 664.852C372.729 663.608 370.964 661.92 369.629 659.911C356.807 640.703 351.039 617.645 353.308 594.663C355.577 571.681 365.741 550.195 382.071 533.865C398.401 517.536 419.886 507.371 442.869 505.102C465.851 502.833 488.909 508.601 508.117 521.423C510.126 522.758 511.813 524.523 513.058 526.59C514.303 528.656 515.073 530.973 515.315 533.373C515.556 535.774 515.261 538.197 514.452 540.47C513.644 542.743 512.341 544.808 510.638 546.517L510.531 546.623C507.794 549.29 504.215 550.925 500.407 551.247C496.599 551.569 492.796 550.559 489.65 548.389C476.734 539.871 461.273 536.074 445.881 537.638C430.488 539.201 416.107 546.031 405.167 556.971C394.228 567.912 387.4 582.294 385.838 597.687C384.276 613.08 388.076 628.54 396.594 641.455C398.761 644.603 399.768 648.406 399.444 652.214C399.12 656.022 397.485 659.599 394.818 662.336L394.722 662.432Z" fill="white"/>
<path d="M436.729 617.116H369.171V584.449H436.729C441.061 584.449 445.215 586.169 448.279 589.231C451.343 592.293 453.065 596.446 453.068 600.777V600.777C453.068 602.923 452.646 605.048 451.825 607.03C451.003 609.012 449.8 610.814 448.283 612.331C446.765 613.848 444.964 615.052 442.982 615.873C441 616.694 438.875 617.116 436.729 617.116Z" fill="white"/>
<path d="M547.113 699.131C530.618 715.616 510.08 727.477 487.557 733.524C465.034 739.571 441.317 739.592 418.783 733.585C407.358 730.562 396.392 726.015 386.18 720.065C376.252 714.283 367.104 707.255 358.959 699.152C334.753 675.003 320.826 642.429 320.09 608.245C319.825 597.159 320.936 586.082 323.398 575.269C331.557 528.039 359.895 445.823 458.493 437.133C435.512 436.344 412.615 440.29 391.225 448.726C369.834 457.162 350.408 469.908 334.153 486.171C268.616 551.708 268.616 658.411 334.153 723.948C346.484 736.324 360.684 746.684 376.234 754.647C386.704 760.026 397.725 764.26 409.104 767.274C423.433 771.188 438.224 773.156 453.078 773.124C475.164 773.166 497.039 768.843 517.449 760.404C537.858 751.964 556.398 739.575 572.004 723.948C573.684 722.328 575.025 720.389 575.947 718.245C576.869 716.101 577.354 713.795 577.374 711.461C577.394 709.127 576.948 706.813 576.063 704.653C575.178 702.494 573.871 700.533 572.218 698.884C570.566 697.236 568.601 695.934 566.439 695.054C564.278 694.174 561.962 693.735 559.628 693.761C557.294 693.786 554.989 694.278 552.848 695.205C550.706 696.133 548.771 697.478 547.155 699.163L547.113 699.131Z" fill="white"/>
<path d="M323.398 575.238C328.726 552.09 340.153 530.79 356.492 513.55C372.83 496.309 393.486 483.756 416.314 477.193C439.142 470.63 463.311 470.298 486.312 476.229C509.312 482.16 530.305 494.14 547.113 510.924C548.728 512.609 550.663 513.954 552.805 514.882C554.947 515.809 557.252 516.3 559.586 516.326C561.92 516.352 564.235 515.912 566.397 515.033C568.559 514.153 570.523 512.851 572.176 511.203C573.828 509.554 575.135 507.593 576.021 505.434C576.906 503.274 577.352 500.96 577.332 498.626C577.312 496.292 576.827 493.986 575.905 491.842C574.983 489.698 573.642 487.759 571.962 486.139C552.446 466.622 528.42 452.216 502.01 444.196C490.732 440.762 479.116 438.558 467.365 437.622C464.393 437.367 461.422 437.193 458.45 437.101C359.895 445.792 331.557 528.008 323.398 575.238Z" fill="#237AFF"/>
</svg>
