<svg width="20" height="19" viewBox="0 0 20 19" fill="none" xmlns="http://www.w3.org/2000/svg">
<path d="M4.62515 3.61675L12.5157 1.46296L12.0978 0.618342C11.8244 0.0693386 11.1576 -0.157376 10.6086 0.116015L3.54492 3.61675H4.62515Z" fill="#CACACA"/>
<path d="M14.9655 1.5249C14.8678 1.5249 14.7699 1.53824 14.6721 1.56491L12.8184 2.07168L7.15723 3.61645H13.583H16.3836L16.0369 2.34507C15.9035 1.84941 15.4545 1.5249 14.9655 1.5249Z" fill="#CACACA"/>
<path d="M17.5415 4.39453H17.2881H16.9435H16.599H13.9696H4.30757H3.04064H1.97375H1.77593H1.11357C0.762382 4.39453 0.448983 4.55679 0.244496 4.8124C0.151143 4.9302 0.0800167 5.06578 0.0400084 5.2147C0.0155588 5.30806 0 5.40585 0 5.50587V5.63924V6.90617V17.8885C0 18.502 0.497882 18.9998 1.11134 18.9998H17.5392C18.1527 18.9998 18.6506 18.502 18.6506 17.8885V14.7878H12.0559C11.0134 14.7878 10.1666 13.941 10.1666 12.8985V11.8805V11.536V11.1915V10.4269C10.1666 9.91569 10.371 9.45117 10.7022 9.1111C10.9956 8.80879 11.3891 8.6043 11.8291 8.55318C11.9025 8.54431 11.9781 8.53984 12.0536 8.53984H17.7259H18.0704H18.415H18.6506V5.50587C18.6528 4.89241 18.1549 4.39453 17.5415 4.39453Z" fill="#CACACA"/>
<path d="M19.4306 9.60267C19.3194 9.50043 19.1883 9.42264 19.0416 9.37151C18.9282 9.33375 18.8082 9.31152 18.6815 9.31152H18.6526H18.6304H18.2859H17.0434H12.0557C11.4422 9.31152 10.9443 9.80938 10.9443 10.4229V10.9763V11.3208V11.6653V12.8967C10.9443 13.5102 11.4422 14.008 12.0557 14.008H18.6526H18.6815C18.8082 14.008 18.9282 13.9858 19.0416 13.948C19.1883 13.8991 19.3194 13.8191 19.4306 13.7169C19.6528 13.5146 19.7929 13.2212 19.7929 12.8967V10.4229C19.7929 10.0983 19.6528 9.80492 19.4306 9.60267ZM14.3762 11.8809C14.3762 12.1877 14.1272 12.4366 13.8205 12.4366H13.4515C13.1448 12.4366 12.8959 12.1877 12.8959 11.8809V11.512C12.8959 11.3341 12.9781 11.1763 13.1092 11.0763C13.2048 11.0029 13.3226 10.9563 13.4515 10.9563H13.5449H13.8205C14.1272 10.9563 14.3762 11.2052 14.3762 11.512V11.8809Z" fill="#CACACA"/>
</svg>
